# xmcd CD database file
#
# Track frame offsets:
#	150
#	20859
#	39830
#	57730
#	77916
#	96162
#	114924
#	133519
#	151767
#	168566
#	185341
#	203924
#	222272
#
# Disc length: 3105 seconds
#
# Revision: 0
# Processed by: cddbd v1.4PL0 Copyright (c) Steve Scherf et al.
# Submitted via: CdAid 2001.05.15.01
#
DISCID=b00c1f0d
DTITLE=Eros Ramazzotti - 9
DYEAR=1900
DGENRE=
TTITLE0=un segundo de paz
TTITLE1=solo ayer
TTITLE2=una emoción para siempre
TTITLE3=revivirte otra vez
TTITLE4=la noche son tus ojos
TTITLE5=un ancla en el viento
TTITLE6=piedra pequeña
TTITLE7=mamará, una gran mujer
TTITLE8=el hombre que miraba las nubes
TTITLE9=canción para ella
TTITLE10=no te prometo nada
TTITLE11=falsa salida
TTITLE12=hay una melodía
EXTD=FJSE
EXTT0=
EXTT1=
EXTT2=
EXTT3=
EXTT4=
EXTT5=
EXTT6=
EXTT7=
EXTT8=
EXTT9=
EXTT10=
EXTT11=
EXTT12=
PLAYORDER=
